<svg xmlns="http://www.w3.org/2000/svg" width="15.999" height="10" viewBox="0 0 15.999 10">
  <path id="arrow_back_1" d="M240,710.5a3.5,3.5,0,0,1-3.5,3.5h-9.1l1.3,1.29a1.008,1.008,0,0,1,0,1.42,1.015,1.015,0,0,1-1.421,0l-3-3c-.009-.01-.009-.02-.019-.03a.841.841,0,0,1-.191-.3.037.037,0,0,1-.01-.03.853.853,0,0,1-.06-.31v-.1a1.008,1.008,0,0,1,.05-.25.3.3,0,0,1,.04-.1.953.953,0,0,1,.19-.3l3-3a1,1,0,0,1,1.421,1.42L227.4,712h9.1a1.5,1.5,0,1,0,0-3h-4.5a1,1,0,0,1-1-1h0a1,1,0,0,1,1-1h4.5a3.5,3.5,0,0,1,3.5,3.5Z" transform="translate(-224 -707)"/>
</svg>
