<svg xmlns="http://www.w3.org/2000/svg" width="15.998" height="15.913" viewBox="0 0 15.998 15.913">
  <path id="share_1_sq" d="M386,687.993A2,2,0,0,1,384,686v-9.946a2,2,0,0,1,2-1.989h2a.995.995,0,1,1,0,1.989h-2V686h10v-4.973a1,1,0,0,1,2,0V686a2,2,0,0,1-2,1.989Zm3-3.981a1,1,0,0,1-1-.993c0-.085.1-8.228,8.678-8.862l-.382-.38a.991.991,0,0,1,0-1.407,1.006,1.006,0,0,1,1.415,0l2,1.989a.987.987,0,0,1,.2.3.894.894,0,0,1,.035.1.973.973,0,0,1,.049.247.911.911,0,0,1,0,.1.955.955,0,0,1-.061.315c0,.008,0,.017-.006.026v0a.977.977,0,0,1-.2.292c-.009.01-.013.022-.022.031l-2,1.989a1,1,0,0,1-1.415,0,.99.99,0,0,1,0-1.406l.171-.17A6.941,6.941,0,0,0,390,683.023a1,1,0,0,1-1,.99Z" transform="translate(-384 -672.08)"/>
</svg>
