<svg xmlns="http://www.w3.org/2000/svg" width="15.999" height="15.999" viewBox="0 0 15.999 15.999">
  <path id="copy_4" d="M680,688a2.006,2.006,0,0,1-2-2v-6a2.006,2.006,0,0,1,2-2h6a2.006,2.006,0,0,1,2,2v6a2.006,2.006,0,0,1-2,2Zm0-2h6v-6h-6Zm-5-2v-7a2.006,2.006,0,0,1,2-2h7a1,1,0,0,1,1,1,.944.944,0,0,1-.09.41A1,1,0,0,1,684,677h-7v7a1,1,0,0,1-.589.91.944.944,0,0,1-.41.09A1,1,0,0,1,675,684Zm-3-3v-7a2.006,2.006,0,0,1,2-2h7a1,1,0,0,1,1,1,.953.953,0,0,1-.09.409,1,1,0,0,1-.91.59h-7v7a1,1,0,0,1-.59.91A.953.953,0,0,1,673,682,1,1,0,0,1,672,681Z" transform="translate(-672 -672)"/>
</svg>
