<svg xmlns="http://www.w3.org/2000/svg" width="15.828" height="15.913" viewBox="0 0 15.828 15.913">
  <path id="pin" d="M623.579,326.336l-5.936-5.968a.985.985,0,0,0-1.4,0,1,1,0,0,0,0,1.407l.11.11-6.193,3.891-.433-.435a.985.985,0,0,0-1.4,0,1,1,0,0,0,0,1.407l.989.994,2.763,2.778-3.752,3.773a1,1,0,0,0,0,1.406.985.985,0,0,0,1.4,0l3.753-3.772,2.763,2.777.989.995a.986.986,0,0,0,1.4,0,1,1,0,0,0,0-1.406l-.433-.436,3.87-6.225.11.11a.984.984,0,0,0,1.4,0A1,1,0,0,0,623.579,326.336Zm-6.815,6.078L611.6,327.22l6.192-3.891,2.844,2.859Z" transform="translate(-608.041 -320.077)"/>
</svg>
